<svg width="40" height="40" viewBox="0 0 1024 1024" xmlns="http://www.w3.org/2000/svg">
<path d="M0 0 C1.51699327 -0.00302294 3.03398501 -0.00691314 4.55097407 -0.01159257 C8.70746808 -0.02186302 12.86387574 -0.01969317 17.0203768 -0.01541197 C21.50788718 -0.012943 25.99537686 -0.02196107 30.48287964 -0.02944946 C39.26998465 -0.042194 48.0570591 -0.04399044 56.8441718 -0.0416492 C63.98776927 -0.03986551 71.13135748 -0.04161679 78.27495384 -0.04587364 C79.80056344 -0.04676643 79.80056344 -0.04676643 81.35699343 -0.04767724 C83.42325412 -0.04888901 85.4895148 -0.05010314 87.55577549 -0.05131962 C106.9304048 -0.06219434 126.3050167 -0.06003306 145.67964699 -0.05393478 C163.39647815 -0.04876642 181.11325431 -0.06001904 198.83007459 -0.07903299 C217.02923589 -0.09841459 235.22837118 -0.10666678 253.42754287 -0.10290974 C263.64193798 -0.1009981 273.8562863 -0.10348169 284.07067299 -0.11762428 C292.76692509 -0.12954318 301.46310158 -0.13093728 310.15935472 -0.11883412 C314.59413075 -0.11294886 319.02876852 -0.11183622 323.46353531 -0.12383652 C327.52802568 -0.1347068 331.59226254 -0.13157841 335.65674111 -0.11757483 C337.12236755 -0.11493104 338.58801394 -0.11728442 340.05362079 -0.1253107 C356.07021517 -0.20689408 368.77329891 3.13264063 380.70405579 14.20562744 C381.22132614 14.6856449 381.7385965 15.16566236 382.27154171 15.66022581 C388.20251661 21.19706492 393.95596811 26.91184152 399.6993866 32.64179993 C400.90305348 33.83918074 402.10690116 35.03637984 403.31091309 36.2334137 C407.21357933 40.11532242 411.11116955 44.00230678 415.00846863 47.88960266 C416.36046991 49.2375482 417.71250184 50.58546299 419.06456375 51.9333477 C425.41024588 58.26005439 431.75356575 64.58911774 438.09395587 70.92112786 C445.38208335 78.19945847 452.67844468 85.46940428 459.98179138 92.73246247 C465.6528301 98.37329784 471.31612947 104.02182928 476.9737407 109.67613167 C480.34248412 113.04253314 483.71440137 116.40559805 487.09458542 119.76051521 C490.27016541 122.9127298 493.43598538 126.07443529 496.59477806 129.24346924 C497.74980793 130.39899221 498.90821774 131.55114894 500.07037163 132.69950676 C509.9583486 142.47669599 519.41226021 153.19942691 519.52852505 167.8158741 C519.51978653 168.61356146 519.51104801 169.41124882 519.50204468 170.23310852 C519.50460795 171.10157347 519.50717123 171.97003841 519.50981218 172.86482048 C519.51472814 175.75608649 519.49829342 178.64682278 519.4818573 181.53804016 C519.48101055 183.61801135 519.4814871 185.69798343 519.48318481 187.7779541 C519.48404433 193.41167716 519.46642538 199.04520797 519.44546294 204.67888641 C519.42668907 210.57121807 519.42494513 216.4635543 519.42138672 222.35591125 C519.41206836 233.50817536 519.38745734 244.66035108 519.35733825 255.81257629 C519.32378779 268.51141949 519.30730659 281.21026695 519.29225194 293.90914345 C519.26090766 320.02637674 519.20815116 346.14353162 519.14128113 372.26069641 C517.54769699 371.47090543 515.95491614 370.67949349 514.36247253 369.8874054 C513.47540619 369.44686325 512.58833984 369.00632111 511.6743927 368.5524292 C508.51763908 366.94267691 505.52973943 365.18848895 502.51628113 363.32319641 C501.4927655 362.69542297 500.46924988 362.06764954 499.41471863 361.42085266 C498.33448425 360.7080011 497.25424988 359.99514954 496.14128113 359.26069641 C495.46933873 358.94987845 494.79739634 358.6390605 494.10509205 358.31882381 C491.49380632 356.88344015 489.95582659 355.64542874 488.14128113 353.26069641 C486.92442653 347.77098455 487.10193154 342.30653916 487.18888855 336.7179718 C487.18619259 335.01417148 487.17993697 333.31037363 487.1703949 331.6065979 C487.15754424 327.9426653 487.16990043 324.27999509 487.20194054 320.61618233 C487.25255036 314.82089662 487.24758045 309.02646278 487.23535156 303.23101807 C487.22269095 294.06306156 487.24811746 284.89566122 487.28937179 275.72780365 C487.36222477 259.31428514 487.37523344 242.9006892 487.36721689 226.48702806 C487.36597242 220.72844284 487.38287513 214.97027615 487.4148649 209.21178257 C487.43234855 205.62669925 487.43787372 202.04166286 487.44065857 198.45654106 C487.44463218 196.79690829 487.45379929 195.13727838 487.46860695 193.47770691 C487.48826728 191.20753558 487.48937013 188.93805397 487.48617554 186.66781616 C487.49195712 185.39892579 487.4977387 184.13003542 487.50369549 182.82269382 C487.0754341 178.61351748 486.08254971 176.00649319 484.14128113 172.26069641 C476.16660061 166.27968602 462.85060305 168.13370418 453.39518738 168.19819641 C451.38878943 168.20483168 449.3823914 168.21145554 447.37599182 168.21757889 C445.26347442 168.22465064 443.15097475 168.23389103 441.03846741 168.2434845 C433.7316285 168.27482078 426.42473942 168.27589073 419.11784363 168.27632141 C418.39067327 168.27638435 417.66350292 168.2764473 416.9142971 168.27651215 C404.39848969 168.27577235 391.88321148 168.25900749 379.36878967 168.05317688 C377.52572186 168.02511446 375.68253699 168.00382734 373.83930969 167.98970032 C371.31294363 167.96872906 368.78824608 167.92300468 366.26237488 167.87007141 C365.54757965 167.86884277 364.83278442 167.86761414 364.09632874 167.86634827 C357.901816 167.68484106 352.7717172 165.54074621 348.11784363 161.50679016 C340.3518963 151.1147855 341.89958921 137.8748907 342.0215168 125.53281403 C342.05194935 122.3795235 342.06856385 119.22642111 342.08157349 116.07301331 C342.12111853 107.11524809 342.1865424 98.15771282 342.25773621 89.20014954 C342.30049104 83.702113 342.32855688 78.20415162 342.34803581 72.70598602 C342.3585794 70.61841845 342.37495001 68.53087164 342.39734077 66.44339752 C342.42860307 63.52660225 342.44131931 60.61025089 342.45011902 57.6933136 C342.46404694 56.83809113 342.47797485 55.98286865 342.49232483 55.10173035 C342.48247668 48.70365181 341.50623206 43.7607874 336.95378113 38.94819641 C329.40940288 34.42156946 321.03657528 34.97473531 312.5151825 35 C311.13216938 34.99697641 309.74915793 34.99308588 308.36614943 34.98840743 C304.58011288 34.97814573 300.79417123 34.98030456 297.00812697 34.98458803 C292.91944981 34.98705853 288.83079529 34.97803714 284.74212646 34.97055054 C276.73809013 34.95781122 268.73408735 34.95600883 260.73004258 34.9583508 C254.22429094 34.96013472 247.71854949 34.95838274 241.21279907 34.95412636 C240.28644676 34.95353117 239.36009445 34.95293598 238.40567085 34.95232276 C236.52373397 34.95111099 234.64179709 34.94989686 232.75986022 34.94868038 C215.11787355 34.93780812 197.47590601 34.93996604 179.83391827 34.94606522 C163.69612401 34.95123597 147.55839008 34.93997421 131.42060775 34.92096701 C114.84528824 34.90159426 98.26999729 34.8933315 81.69466639 34.89709026 C72.39083527 34.89900292 63.08705552 34.89650827 53.78323364 34.88237572 C45.86423064 34.87046825 37.94531064 34.86905003 30.02630651 34.88116588 C25.98682433 34.88705858 21.94749403 34.88814317 17.90802193 34.87616348 C14.20821294 34.86531864 10.50868292 34.8683912 6.80888706 34.88242517 C4.84079522 34.88632899 2.87269106 34.87551369 0.90462828 34.86412829 C-9.46772199 34.85053627 -9.46772199 34.85053627 -18.40681028 39.64180297 C-22.33122671 44.03787194 -22.97522792 47.60107472 -23.01693726 53.29737854 C-23.03162048 54.82017426 -23.03162048 54.82017426 -23.04660034 56.37373352 C-23.0523558 57.48144104 -23.05811127 58.58914856 -23.06404114 59.73042297 C-23.07394073 60.90143555 -23.08384033 62.07244812 -23.09403992 63.27894592 C-23.12565019 67.15305045 -23.15041063 71.02716725 -23.17512512 74.90132141 C-23.19515841 77.58604187 -23.21664398 80.27075017 -23.23809814 82.95545959 C-23.28798107 89.30184316 -23.33293619 95.64825168 -23.37612051 101.99468398 C-23.42553053 109.22078733 -23.48043468 116.44684566 -23.5358001 123.67290545 C-23.64955258 138.5354602 -23.75640625 153.39805832 -23.85871887 168.26069641 C-22.75239145 168.25613977 -22.75239145 168.25613977 -21.62371397 168.25149107 C22.08295732 168.07249301 65.78958876 167.93521753 109.49655309 167.85217378 C114.74368962 167.84216804 119.9908254 167.83181347 125.23796082 167.82124329 C126.2825775 167.8191448 127.32719419 167.81704632 128.40346593 167.81488425 C145.32107656 167.7800672 162.23846988 167.71698709 179.15595156 167.64347404 C196.5129671 167.56867971 213.86986877 167.52422997 231.22703886 167.50798845 C241.93874491 167.49700765 252.64983671 167.46231842 263.3613537 167.39736468 C270.70520316 167.35509882 278.04873476 167.34229054 285.39269704 167.35268539 C289.6309672 167.35781317 293.86816359 167.34991718 298.10624313 167.30705261 C301.98818568 167.26807689 305.86833424 167.26617871 309.75035995 167.29350525 C311.1529518 167.29688153 312.55565624 167.28676427 313.95802695 167.26163095 C324.42478552 167.08498582 324.42478552 167.08498582 328.65256786 169.98079777 C330.65730403 171.97796525 332.37920716 174.05075699 334.14128113 176.26069641 C335.47087547 177.47564599 336.82254042 178.66729948 338.20378113 179.82319641 C341.41570756 182.58432615 344.39740202 185.4942526 347.36393738 188.51460266 C349.20721686 190.32547284 351.11950912 192.01390995 353.07878113 193.69819641 C356.73675566 196.84277101 360.12119992 200.19615047 363.47721863 203.65913391 C365.06550846 205.34698365 365.06550846 205.34698365 367.14128113 206.26069641 C367.14128113 206.92069641 367.14128113 207.58069641 367.14128113 208.26069641 C367.69686707 208.48757141 368.252453 208.71444641 368.82487488 208.94819641 C371.80659155 210.63766825 373.82837283 212.79571767 376.20378113 215.26069641 C378.79622068 217.94279929 381.03311875 220.18858816 384.14128113 222.26069641 C384.14128113 222.92069641 384.14128113 223.58069641 384.14128113 224.26069641 C384.67753113 224.46694641 385.21378113 224.67319641 385.76628113 224.88569641 C389.17400229 226.85858761 391.92523207 229.00946866 394.14128113 232.26069641 C394.98035954 235.61846292 394.90217491 238.85916063 394.82243347 242.30513 C394.82330963 243.30087036 394.82418579 244.29661072 394.8250885 245.32252502 C394.8209201 248.60220248 394.77430104 251.87981534 394.72721863 255.15913391 C394.71602389 257.43741234 394.70748502 259.71570524 394.70149231 261.9940033 C394.67861625 267.98174629 394.61970197 273.96861187 394.55326843 279.95600891 C394.49182046 286.06916942 394.46447182 292.18247213 394.43424988 298.29585266 C394.36995884 310.28451878 394.2675929 322.27253455 394.14128113 334.26069641 C389.35100127 335.64858792 384.56777498 336.84794806 379.70378113 337.94819641 C371.03122911 340.03890998 363.14193354 343.35931084 355.14128113 347.26069641 C353.99530457 347.81886047 352.849328 348.37702454 351.66862488 348.95210266 C340.75811564 354.55690538 331.44586805 361.83611779 322.45768738 370.13179016 C320.2891071 372.12483611 318.07213775 374.04029499 315.82878113 375.94819641 C312.52988714 378.81564551 309.86929549 381.85067846 307.14128113 385.26069641 C304.95378113 387.63569641 304.95378113 387.63569641 303.14128113 389.26069641 C302.48128113 389.26069641 301.82128113 389.26069641 301.14128113 389.26069641 C300.78356628 390.10567688 300.78356628 390.10567688 300.41862488 390.96772766 C298.86336342 393.75958845 296.96923688 395.6976205 294.70378113 397.94819641 C293.92132019 398.7358136 293.13885925 399.52343079 292.33268738 400.33491516 C288.95775844 403.3007618 286.2380279 403.38378322 281.91513538 403.36812687 C280.82582621 403.36663452 279.73651704 403.36514217 278.61419851 403.36360461 C277.41285211 403.35680082 276.21150571 403.34999703 274.97375488 403.34298706 C273.70120682 403.33975793 272.42865877 403.33652881 271.11754864 403.33320183 C267.5784111 403.32408524 264.03932456 403.30865333 260.50021446 403.29221904 C256.68633734 403.27560519 252.87244333 403.26480713 249.05854797 403.25331116 C242.44840349 403.23258668 235.83828096 403.20815818 229.22815895 403.18123055 C219.6709728 403.14230279 210.11377365 403.10893536 200.55656209 403.07693528 C185.05150181 403.02486876 169.5464614 402.96829069 154.04142761 402.90888977 C138.9776334 402.8511889 123.91383383 402.7956039 108.85002136 402.74287415 C107.45777018 402.73799957 107.45777018 402.73799957 106.03739271 402.73302651 C101.38115858 402.71673709 96.7249243 402.70048938 92.06868994 402.68426239 C53.4261958 402.54953929 14.78373115 402.40750042 -23.85871887 402.26069641 C-23.82093021 422.55835964 -23.76157577 442.85583366 -23.67481613 463.15334892 C-23.63505552 472.57845713 -23.60264791 482.0034822 -23.58772278 491.42866516 C-23.57469081 499.64641805 -23.54768677 507.86398778 -23.50410581 516.0816375 C-23.48152567 520.43035758 -23.46580612 524.77885205 -23.46683502 529.12763596 C-23.46758368 533.22683063 -23.44955091 537.32552724 -23.41755104 541.42459297 C-23.40908196 542.92327284 -23.40728166 544.42200877 -23.41291618 545.92070198 C-23.44353017 555.3207774 -23.34873972 564.65554683 -16.42121887 571.76069641 C-7.76866282 576.82560727 1.57619723 576.40797874 11.36424255 576.32711792 C12.46279658 576.32232782 13.56135061 576.31753772 14.69319415 576.31260246 C18.35724583 576.29557995 22.02121478 576.27133113 25.68522644 576.24726868 C28.31880089 576.233884 30.95237296 576.22095844 33.58595276 576.20877075 C37.78937752 576.18895344 41.99279632 576.16853794 46.19620562 576.14565003 C56.60436273 576.08900098 67.01250088 576.04753428 77.42076111 576.01531982 C78.17456327 576.01295529 78.92836543 576.01059076 79.70501009 576.00815458 C83.55867557 575.99606811 87.41234154 575.98414668 91.2660079 575.97234333 C99.19318545 575.94804769 107.12036101 575.92330778 115.04753113 575.89668274 C115.84261482 575.89401875 116.63769851 575.89135477 117.45687565 575.88861006 C130.36024827 575.84459248 143.26337747 575.77525609 156.16658607 575.69760955 C169.42304038 575.61851071 182.67936556 575.56983763 195.93603969 575.54865879 C204.10955444 575.53457153 212.28222356 575.49619418 220.45545837 575.42671817 C226.71203755 575.3759923 232.96803016 575.36716733 239.2247963 575.37412834 C241.79317943 575.3703215 244.36158368 575.35272484 246.92976761 575.32051086 C250.42970643 575.27861971 253.92619985 575.28574785 257.42625427 575.3053894 C258.44832513 575.28140455 259.47039599 575.2574197 260.52343869 575.23270804 C267.23512737 575.34227331 267.23512737 575.34227331 269.85474825 577.99736392 C271.15697228 580.04097112 272.18164795 582.03850883 273.14128113 584.26069641 C273.66182068 585.27696106 274.18236023 586.29322571 274.71867371 587.34028625 C275.15332947 588.29113098 275.58798523 589.24197571 276.03581238 590.22163391 C276.51598816 591.26964172 276.99616394 592.31764954 277.4908905 593.39741516 C277.97364441 594.46604797 278.45639832 595.53468079 278.95378113 596.63569641 C279.45587097 597.72753235 279.95796082 598.81936829 280.4752655 599.94429016 C284.14128113 607.99456121 284.14128113 607.99456121 284.14128113 610.26069641 C278.59745304 611.42696322 273.20113733 611.40034424 267.56552124 611.38768005 C265.9672034 611.39002004 265.9672034 611.39002004 264.33659631 611.3924073 C260.76521091 611.3963964 257.19386802 611.39323552 253.6224823 611.39009094 C251.06120784 611.39144606 248.49993357 611.39322662 245.93865967 611.395401 C239.69864943 611.39949193 233.45865491 611.3988861 227.21864446 611.39598836 C222.13557228 611.39372632 217.05250346 611.39342529 211.96943092 611.39451218 C211.24476657 611.39466541 210.52010221 611.39481864 209.77347833 611.39497652 C208.30090282 611.39529627 206.8283273 611.39562049 205.35575179 611.39594911 C191.53937486 611.39880178 177.72300455 611.39552221 163.90662871 611.39014874 C152.10129791 611.38569885 140.29597697 611.38644199 128.49064636 611.3910675 C114.75181981 611.39644815 101.01299911 611.39850827 87.27417165 611.39545524 C85.80132473 611.39513674 84.3284778 611.39482237 82.85563087 611.39451218 C82.13119349 611.3943579 81.40675611 611.39420363 80.66036608 611.39404467 C75.60453081 611.39318859 70.5486993 611.394623 65.49286461 611.39699173 C58.64496761 611.40012961 51.79708919 611.39781868 44.94919395 611.39209747 C42.45538869 611.39079118 39.96158186 611.391127 37.46777725 611.39336014 C25.13358039 611.40337343 12.81045633 611.30425881 0.48254395 610.88542175 C-1.04446254 610.84145757 -1.04446254 610.84145757 -2.60231763 610.79660523 C-15.46416856 610.29227004 -25.8061514 606.39758593 -35.85871887 598.26069641 C-36.91059387 597.49757141 -37.96246887 596.73444641 -39.04621887 595.94819641 C-50.11750741 585.36896514 -55.79462359 571.42390345 -56.20372498 556.25986055 C-56.26783923 551.52064155 -56.26132795 546.78281758 -56.24639893 542.04328918 C-56.25057549 539.88421143 -56.25605477 537.72513587 -56.26271874 535.56606436 C-56.27714939 529.65327683 -56.27293602 523.74062898 -56.26555192 517.82783389 C-56.26081676 511.4432843 -56.27333312 505.05876477 -56.28356934 498.67422485 C-56.29976255 486.8967603 -56.30220437 475.11934419 -56.29726434 463.34187086 C-56.29270263 452.46065563 -56.29331202 441.57945689 -56.29910469 430.69824219 C-56.29986156 429.23720848 -56.30061754 427.77617476 -56.30137264 426.31514105 C-56.30251786 424.11336108 -56.30366774 421.91158111 -56.30483188 419.70980114 C-56.31553214 399.24808912 -56.32026689 378.78638259 -56.31236172 358.32466888 C-56.31206454 357.55382778 -56.31176737 356.78298668 -56.31146119 355.98878675 C-56.30901239 349.72947049 -56.30640074 343.47015429 -56.30377706 337.2108381 C-56.29367328 312.79269835 -56.30203443 288.37462736 -56.32527161 263.95649719 C-56.3513521 236.50630524 -56.36419024 209.05615468 -56.35708386 181.60594988 C-56.35636782 178.67835014 -56.35569343 175.75075039 -56.35504341 172.82315063 C-56.3548736 172.10233001 -56.35470379 171.38150939 -56.35452884 170.63884572 C-56.35222749 159.76592865 -56.36019486 148.89305005 -56.37333488 138.0201416 C-56.38825311 125.65397661 -56.38870572 113.28791877 -56.37126397 100.92175376 C-56.36274362 94.61344339 -56.36063004 88.30530502 -56.37591553 81.99700356 C-56.389741 76.21972133 -56.38502658 70.44275884 -56.36567629 64.66549522 C-56.3619095 62.57817197 -56.36485774 60.49082325 -56.37528794 58.40352267 C-56.4535198 41.54593595 -54.4169872 27.76319576 -42.60481262 14.78413391 C-30.0198755 2.70421032 -16.83816892 -0.0475409 0 0 Z M373.14128113 54.26069641 C373.14128113 81.32069641 373.14128113 108.38069641 373.14128113 136.26069641 C400.20128113 136.59069641 427.26128113 136.92069641 455.14128113 137.26069641 C455.14128113 136.60069641 455.14128113 135.94069641 455.14128113 135.26069641 C453.49776655 133.89892719 451.82605457 132.57107575 450.14128113 131.26069641 C447.68603706 128.92236873 445.4528927 126.68771968 443.45378113 123.94819641 C443.02065613 123.39132141 442.58753113 122.83444641 442.14128113 122.26069641 C441.48128113 122.26069641 440.82128113 122.26069641 440.14128113 122.26069641 C439.81128113 121.27069641 439.48128113 120.28069641 439.14128113 119.26069641 C437.15867687 117.57337364 435.15804692 115.90703584 433.14128113 114.26069641 C432.48128113 113.27069641 431.82128113 112.28069641 431.14128113 111.26069641 C430.48128113 111.26069641 429.82128113 111.26069641 429.14128113 111.26069641 C429.14128113 110.60069641 429.14128113 109.94069641 429.14128113 109.26069641 C428.48128113 109.26069641 427.82128113 109.26069641 427.14128113 109.26069641 C426.87968201 108.67443481 426.61808289 108.08817322 426.34855652 107.48414612 C425.07174906 105.13263859 423.71055176 103.57623324 421.82487488 101.6855011 C421.15077576 101.00509766 420.47667664 100.32469421 419.78215027 99.62367249 C419.05503845 98.90060913 418.32792664 98.17754578 417.57878113 97.43257141 C416.83168884 96.68356567 416.08459656 95.93455994 415.31486511 95.16285706 C413.73700194 93.58363437 412.15661614 92.00692867 410.57389832 90.43257141 C408.14350148 88.01290695 405.72398052 85.58273452 403.30534363 83.15132141 C401.77213061 81.61942944 400.23829761 80.08815769 398.70378113 78.55757141 C397.97666931 77.82641113 397.2495575 77.09525085 396.50041199 76.3419342 C395.82631287 75.6741394 395.15221375 75.0063446 394.45768738 74.3183136 C393.86415466 73.72637207 393.27062195 73.13443054 392.65910339 72.52455139 C391.21431194 71.04740092 391.21431194 71.04740092 389.14128113 71.26069641 C388.92471863 70.71929016 388.70815613 70.17788391 388.48503113 69.62007141 C386.67628116 66.44424298 384.22404313 64.0534156 381.64128113 61.51069641 C381.14241394 61.00409485 380.64354675 60.49749329 380.12956238 59.97554016 C377.61066476 57.13264042 377.61066476 57.13264042 374.14128113 56.26069641 C373.81128113 55.60069641 373.48128113 54.94069641 373.14128113 54.26069641 Z M14.14128113 233.26069641 C14.11853215 244.14555949 14.10025277 255.03040633 14.08946896 265.91528797 C14.08428877 270.97159534 14.07728149 276.02788535 14.06584167 281.08418274 C14.05483739 285.97958225 14.04896785 290.87496526 14.04640388 295.77037621 C14.04458078 297.6219121 14.04102235 299.47344726 14.03555107 301.32497597 C14.00055355 313.6794183 14.39912023 325.92644452 15.14128113 338.26069641 C22.07128113 338.26069641 29.00128113 338.26069641 36.14128113 338.26069641 C36.14128113 324.40069641 36.14128113 310.54069641 36.14128113 296.26069641 C48.35128113 296.26069641 60.56128113 296.26069641 73.14128113 296.26069641 C73.47128113 310.78069641 73.80128113 325.30069641 74.14128113 340.26069641 C80.74128113 340.26069641 87.34128113 340.26069641 94.14128113 340.26069641 C94.14128113 305.28069641 94.14128113 270.30069641 94.14128113 234.26069641 C87.54128113 234.26069641 80.94128113 234.26069641 74.14128113 234.26069641 C73.81128113 248.12069641 73.48128113 261.98069641 73.14128113 276.26069641 C61.26128113 276.26069641 49.38128113 276.26069641 37.14128113 276.26069641 C36.01628113 269.51069641 36.01628113 269.51069641 36.02775574 266.18305969 C36.02783127 265.44274506 36.0279068 264.70243042 36.02798462 263.93968201 C36.0331459 263.16131989 36.03830719 262.38295776 36.04362488 261.58100891 C36.04503983 260.76824493 36.04645477 259.95548096 36.0479126 259.11808777 C36.05347778 256.5405854 36.06602373 253.96317221 36.07878113 251.38569641 C36.08380063 249.63048934 36.08836275 247.87528089 36.092453 246.12007141 C36.10258183 241.83355168 36.12216381 237.54722303 36.14128113 233.26069641 C28.88128113 233.26069641 21.62128113 233.26069641 14.14128113 233.26069641 Z M108.14128113 234.26069641 C108.14128113 241.52069641 108.14128113 248.78069641 108.14128113 256.26069641 C116.39128113 256.26069641 124.64128113 256.26069641 133.14128113 256.26069641 C133.13604431 258.769776 133.1308075 261.27885559 133.12541199 263.8639679 C133.10887641 272.13412524 133.09781004 280.40428331 133.08946896 288.67445278 C133.08424006 293.69092111 133.0771423 298.70737256 133.06584167 303.72383118 C133.05501302 308.56079335 133.04900434 313.39773925 133.04640388 318.2347126 C133.04454959 320.08437926 133.04092891 321.93404499 133.03555107 323.78370476 C133.02834093 326.36516655 133.02729017 328.94656023 133.02775574 331.5280304 C133.02416046 332.30054642 133.02056519 333.07306244 133.01686096 333.86898804 C132.7041705 337.35601332 132.7041705 337.35601332 134.14128113 340.26069641 C140.41128113 340.26069641 146.68128113 340.26069641 153.14128113 340.26069641 C153.14128113 312.54069641 153.14128113 284.82069641 153.14128113 256.26069641 C161.06128113 256.26069641 168.98128113 256.26069641 177.14128113 256.26069641 C177.14128113 249.00069641 177.14128113 241.74069641 177.14128113 234.26069641 C154.37128113 234.26069641 131.60128113 234.26069641 108.14128113 234.26069641 Z M192.14128113 234.26069641 C192.14128113 241.52069641 192.14128113 248.78069641 192.14128113 256.26069641 C199.73128113 256.26069641 207.32128113 256.26069641 215.14128113 256.26069641 C215.14128113 283.98069641 215.14128113 311.70069641 215.14128113 340.26069641 C222.07128113 340.26069641 229.00128113 340.26069641 236.14128113 340.26069641 C236.14128113 312.54069641 236.14128113 284.82069641 236.14128113 256.26069641 C244.06128113 256.26069641 251.98128113 256.26069641 260.14128113 256.26069641 C260.41971863 251.37257141 260.41971863 251.37257141 260.70378113 246.38569641 C260.79574768 244.84679749 260.79574768 244.84679749 260.88957214 243.27680969 C260.93267517 242.46969543 260.9757782 241.66258118 261.02018738 240.83100891 C261.06731873 240.00359192 261.11445007 239.17617493 261.16300964 238.32368469 C261.29113069 236.19558828 261.29113069 236.19558828 260.14128113 234.26069641 C237.70128113 234.26069641 215.26128113 234.26069641 192.14128113 234.26069641 Z M276.14128113 234.26069641 C276.14128113 269.24069641 276.14128113 304.22069641 276.14128113 340.26069641 C283.40128113 340.26069641 290.66128113 340.26069641 298.14128113 340.26069641 C298.14128113 329.37069641 298.14128113 318.48069641 298.14128113 307.26069641 C302.10128113 307.38444641 302.10128113 307.38444641 306.14128113 307.51069641 C320.72777847 307.64541077 333.04676689 304.8214022 343.93815613 294.56929016 C351.40465633 286.60379119 353.50077931 277.08157268 353.34440613 266.44819641 C352.71365143 256.55019955 349.44360534 249.09429035 342.14128113 242.26069641 C323.24613403 229.68361412 296.7709965 234.26069641 276.14128113 234.26069641 Z " fill="#6474FE" transform="translate(273.8587188720703,190.7393035888672)"/>
<path d="M0 0 C2.42632843 2.2253831 4.79747964 4.50292631 7.16674805 6.7890625 C7.8834668 7.45421875 8.60018555 8.119375 9.33862305 8.8046875 C32.91530522 31.24968893 47.38183399 64.38631046 48.38549805 96.76953125 C49.14340448 135.283145 37.21496551 169.87339897 10.70288086 198.234375 C5.89463985 203.22434965 0.70760097 207.6272663 -4.83325195 211.7890625 C-5.63118164 212.39105469 -6.42911133 212.99304688 -7.2512207 213.61328125 C-26.5599556 227.63022583 -49.02309278 237.24817021 -72.83325195 239.7890625 C-73.97020508 239.93472656 -75.1071582 240.08039063 -76.27856445 240.23046875 C-111.83238485 243.75616075 -148.40222653 231.01762025 -175.98388672 208.86279297 C-202.37002193 187.14453998 -218.93591206 155.68871709 -222.83325195 121.7890625 C-222.9130127 121.10908203 -222.99277344 120.42910156 -223.07495117 119.72851562 C-227.05613848 82.61722916 -217.2239061 45.155214 -194.2121582 15.66015625 C-170.67322374 -12.74890259 -140.84603822 -30.38778382 -103.89575195 -34.8984375 C-66.2431423 -37.89069787 -28.18293472 -25.23350717 0 0 Z M-136.14575195 37.2265625 C-144.1781979 46.39943508 -141.12214247 65.28750792 -141.09887695 76.578125 C-141.10022644 78.89114421 -141.10216933 81.20416315 -141.10467529 83.5171814 C-141.10761201 88.3467684 -141.10337501 93.17628106 -141.09399414 98.00585938 C-141.08258773 104.1768312 -141.08917595 110.34762924 -141.10113907 116.51859474 C-141.10838601 121.28855688 -141.10605694 126.05847821 -141.10088348 130.82844162 C-141.09955549 133.10328568 -141.10116468 135.37813353 -141.10584259 137.65297318 C-141.11095599 140.83727004 -141.10313078 144.02129002 -141.09204102 147.20556641 C-141.09608948 148.13258865 -141.10013794 149.0596109 -141.10430908 150.01472473 C-141.05883685 157.10924571 -140.7810832 164.51948862 -137.08325195 170.7265625 C-132.9093218 174.55266514 -128.47618457 176.45712529 -122.83325195 176.7890625 C-115.23119964 176.10338719 -109.31373616 172.56457789 -102.83325195 168.7890625 C-101.09884195 167.83062553 -99.36437627 166.87228773 -97.62890625 165.91577148 C-88.87652486 161.06619344 -80.3193897 155.90084482 -71.75439453 150.72973633 C-64.02090776 146.07181156 -56.22737655 141.52972306 -48.39575195 137.0390625 C-40.73696086 132.63684167 -33.08764069 128.22294165 -25.52075195 123.6640625 C-24.80411377 123.23899414 -24.08747559 122.81392578 -23.34912109 122.37597656 C-18.21315024 119.25022308 -13.83300957 116.1975695 -11.45825195 110.4765625 C-10.59370274 105.37572213 -10.19941732 101.25480948 -13.11010742 96.86206055 C-17.7738211 91.39855786 -22.77185537 88.00528178 -29.02075195 84.5390625 C-30.99388099 83.40967977 -32.96652747 82.2794536 -34.9387207 81.1484375 C-36.42251221 80.30635742 -36.42251221 80.30635742 -37.9362793 79.44726562 C-42.27679197 76.96279217 -46.55445571 74.37788876 -50.83325195 71.7890625 C-58.61099764 67.10718572 -66.4207886 62.48154674 -74.2421875 57.87304688 C-82.61555817 52.93269178 -90.94953836 47.92757064 -99.27148438 42.90112305 C-103.75129311 40.2026945 -108.23846026 37.51682959 -112.7746582 34.9140625 C-113.45085205 34.52476562 -114.1270459 34.13546875 -114.82373047 33.734375 C-122.60043421 30.07608355 -129.62747459 31.90487712 -136.14575195 37.2265625 Z " fill="#6F6AFE" transform="translate(780.833251953125,591.2109375)"/>
<path d="M0 0 C3.34125 -0.061875 6.6825 -0.12375 10.125 -0.1875 C11.68758545 -0.22846802 11.68758545 -0.22846802 13.28173828 -0.27026367 C20.19873669 -0.3321295 24.4009928 0.75540287 29.75 5.375 C33.41830369 9.99871397 33.43643488 16.33070312 34 22 C33.34 22 32.68 22 32 22 C31.9071875 22.8353125 31.9071875 22.8353125 31.8125 23.6875 C30.33300697 27.89836478 27.1298401 30.26656439 23.47265625 32.640625 C18.76374725 34.48393246 14.62353503 34.3254664 9.625 34.1875 C4.860625 34.0946875 4.860625 34.0946875 0 34 C0 22.78 0 11.56 0 0 Z " fill="#7361FE" transform="translate(572,444)"/>
<path d="M0 0 C1.93591713 -0.00483667 1.93591713 -0.00483667 3.91094369 -0.00977105 C5.34118674 -0.00829996 6.7714297 -0.00673224 8.20167255 -0.00507832 C9.72248955 -0.00694651 11.24330607 -0.00924725 12.76412183 -0.01194364 C16.9447485 -0.01806657 21.1253552 -0.01792747 25.30598533 -0.01674926 C29.81382009 -0.01654539 34.32164841 -0.02206259 38.82948017 -0.02680683 C47.66009131 -0.0351157 56.49069577 -0.03786174 65.32131048 -0.03841921 C72.49508888 -0.03889408 79.66886508 -0.04094736 86.84264278 -0.04411983 C107.16718228 -0.05292558 127.4917165 -0.05753911 147.81625792 -0.05678936 C148.91211983 -0.0567494 150.00798174 -0.05670945 151.13705158 -0.05666828 C152.78284274 -0.05660696 152.78284274 -0.05660696 154.46188221 -0.0565444 C172.26256961 -0.05613753 190.0632359 -0.06571758 207.86391719 -0.07980665 C226.12734707 -0.09414839 244.39076663 -0.10107811 262.65420228 -0.10021287 C272.91361782 -0.09988023 283.1730112 -0.10265685 293.43242168 -0.11339092 C302.16302481 -0.12246681 310.89359572 -0.12469514 319.6242015 -0.1178815 C324.08211816 -0.11460202 328.53997291 -0.11461074 332.9978838 -0.12323475 C337.07307515 -0.1310377 341.14815487 -0.12973269 345.22334329 -0.12095062 C346.70303169 -0.11940186 348.18272818 -0.12128283 349.66240706 -0.12681069 C351.66287159 -0.1337933 353.66336976 -0.12742618 355.66383362 -0.12025452 C356.77826047 -0.12047188 357.89268731 -0.12068925 359.04088467 -0.12091321 C361.6431551 0.12863445 361.6431551 0.12863445 363.6431551 2.12863445 C358.51383114 2.9110737 353.92160902 3.15948407 348.7525301 2.6637907 C341.35355582 2.04646901 334.00182336 1.98078837 326.5806551 2.00363445 C325.289659 1.99976727 323.99866291 1.99590008 322.66854572 1.9919157 C321.43169025 1.99320477 320.19483479 1.99449383 318.92049885 1.99582195 C317.80924641 1.99694988 316.69799397 1.99807781 315.55306721 1.99923992 C313.04180059 2.11090796 311.05199101 2.50706032 308.6431551 3.12863445 C306.61947346 3.13449383 306.61947346 3.13449383 304.48299885 2.97238445 C303.69554279 2.91888836 302.90808674 2.86539227 302.09676838 2.81027508 C300.8512923 2.72036297 300.8512923 2.72036297 299.5806551 2.62863445 C291.91756802 2.13156661 291.91756802 2.13156661 284.2681551 2.62863445 C277.78492649 3.45190158 271.31224975 2.86416564 264.81356525 2.44699383 C263.9323299 2.39349773 263.05109455 2.34000164 262.1431551 2.28488445 C261.3490926 2.23138836 260.5550301 2.17789227 259.7369051 2.12277508 C257.44716312 2.01975864 257.44716312 2.01975864 254.6431551 3.12863445 C253.6531551 2.79863445 252.6631551 2.46863445 251.6431551 2.12863445 C248.40297595 2.30167473 245.19506213 2.64249297 241.96737385 2.97238445 C238.67234044 3.12726264 235.87483773 2.71704893 232.6431551 2.12863445 C230.97350059 2.44666388 229.30636991 2.77848397 227.6431551 3.12863445 C226.75977467 2.90060635 226.75977467 2.90060635 225.85854816 2.66797161 C223.12445186 2.00235622 220.636709 2.00141089 217.82186604 1.99923992 C216.6430788 1.99612301 215.46429157 1.9930061 214.24978352 1.98979473 C212.33301807 1.99277821 212.33301807 1.99277821 210.3775301 1.99582195 C209.0345326 1.99484968 207.6915353 1.99355665 206.3485384 1.99196148 C202.76828143 1.98937264 199.18806672 1.99389188 195.60781574 2.00026608 C193.3957977 2.00363043 191.1837888 2.00480525 188.97176838 2.00531292 C171.61953886 2.01106802 154.29079 2.13801047 136.95052814 2.84079266 C128.41816759 3.17053685 120.14468228 2.86933968 111.6431551 2.12863445 C107.23692389 1.95393806 103.13829813 2.05675885 98.7681551 2.69113445 C95.76036073 3.11161882 93.1614444 3.03265202 90.14950275 2.66427898 C81.26118402 1.79551804 72.33780945 1.98494345 63.4165926 1.99582195 C61.45847277 1.99514706 59.50035302 1.99417548 57.54223347 1.99292278 C53.45574864 1.99145525 49.36928579 1.99357032 45.28280354 1.99826336 C40.06347821 2.00396765 34.84420425 2.00067118 29.62488079 1.9946909 C25.58755835 1.99106618 21.55024796 1.99223251 17.51292515 1.99481869 C15.58893166 1.99548228 13.66493704 1.99467954 11.74094486 1.99233913 C9.04734899 1.98978027 6.35383478 1.99369811 3.66024494 1.99923992 C2.87766819 1.99721569 2.09509144 1.99519146 1.28880024 1.99310589 C-3.99309416 2.01308887 -9.1148168 2.4735689 -14.3568449 3.12863445 C-9.69308085 0.01945842 -5.51103697 0.00348198 0 0 Z " fill="#4B99FA" transform="translate(265.3568449020386,190.87136554718018)"/>
<path d="M0 0 C6.24930755 0.00258004 12.49861384 0.00016971 18.74792147 -0.00138617 C29.93911562 -0.00331152 41.13030293 -0.00024412 52.32149573 0.00487317 C62.31027023 0.00930127 72.29903271 0.00850031 82.28780794 0.00395441 C184.12358802 -0.04114612 184.12358802 -0.04114612 222.09214115 0.5482378 C224.09012338 0.57920767 226.08812606 0.60884923 228.08612871 0.63847208 C231.62372167 0.69332732 235.161065 0.75562319 238.69845247 0.82231379 C240.19387764 0.84679527 240.19387764 0.84679527 241.71951342 0.87177134 C243.07416012 0.90108303 243.07416012 0.90108303 244.45617342 0.93098688 C245.60825257 0.95373776 245.60825257 0.95373776 246.78360605 0.97694826 C249.25711989 1.15129848 251.59670765 1.60201721 254.01632357 2.1343255 C254.01632357 2.4643255 254.01632357 2.7943255 254.01632357 3.1343255 C144.12632357 3.1343255 34.23632357 3.1343255 -78.98367643 3.1343255 C-78.65367643 2.4743255 -78.32367643 1.8143255 -77.98367643 1.1343255 C-51.99541714 -0.07069944 -26.01056897 -0.01416415 0 0 Z " fill="#4197FC" transform="translate(350.98367643356323,221.86567449569702)"/>
<path d="M0 0 C95.7 0 191.4 0 290 0 C290.33 0.66 290.66 1.32 291 2 C237.23719026 2.96526784 183.48485769 3.15889605 129.71426237 3.12856841 C121.03906531 3.12419593 112.3638826 3.12735725 103.68868643 3.1321975 C95.15188106 3.13676309 86.61508182 3.13736487 78.07827562 3.13475883 C73.05223687 3.13322537 68.02620783 3.13292095 63.00016975 3.13629532 C27.71657163 3.15652041 27.71657163 3.15652041 12.00561523 2.61669922 C10.48212888 2.57118518 10.48212888 2.57118518 8.92786503 2.52475166 C8.0245869 2.48668341 7.12130877 2.44861515 6.19065857 2.40939331 C5.42051642 2.37881773 4.65037428 2.34824215 3.85689449 2.31674004 C2 2 2 2 0 0 Z " fill="#6E53F8" transform="translate(261,799)"/>
<path d="M0 0 C0.97142079 0.2110138 0.97142079 0.2110138 1.96246624 0.42629051 C13.91826922 2.65494503 25.95035451 2.30863574 38.06762695 2.31884766 C40.6015352 2.3281567 43.13544041 2.33832681 45.66934204 2.34928894 C51.1028434 2.37087316 56.53630906 2.38652906 61.96984291 2.39665604 C69.8255852 2.41130797 77.68126306 2.43686255 85.5369673 2.46498732 C98.28561405 2.51033768 111.03427014 2.54700078 123.78295898 2.578125 C136.15927772 2.6083589 148.53557368 2.64273122 160.91186523 2.68261719 C161.67610769 2.68507874 162.44035015 2.68754028 163.22775147 2.69007643 C167.06213976 2.70245197 170.89652777 2.71490832 174.73091567 2.72740483 C206.48724631 2.83079639 238.24360177 2.91991143 270 3 C269.67 3.66 269.34 4.32 269 5 C236.31957586 5.06848971 203.63917246 5.12155581 170.95869289 5.15319599 C167.09738043 5.15694795 163.23606811 5.16083093 159.37475586 5.16479492 C158.22171606 5.16597532 158.22171606 5.16597532 157.04538254 5.16717956 C144.61119469 5.18022096 132.1770486 5.2038678 119.74288549 5.23145839 C106.97708489 5.25954787 94.21130611 5.27618374 81.44547588 5.28226548 C73.57308491 5.28637459 65.700812 5.29933634 57.82845739 5.3237494 C51.78420002 5.34153452 45.74004344 5.3433567 39.69575691 5.33932304 C37.2218694 5.3401468 34.74797733 5.34609312 32.27411652 5.35761642 C28.88840785 5.37261051 25.50319839 5.36892808 22.11747742 5.36076355 C20.65974231 5.37387134 20.65974231 5.37387134 19.17255801 5.38724393 C12.3936426 5.34326101 6.44950391 4.05948439 0 2 C0 1.34 0 0.68 0 0 Z " fill="#6A58FD" transform="translate(261,765)"/>
<path d="M0 0 C2.90465742 2.90465742 2.79935613 6.06883643 3 10 C2.94918308 13.57059435 2.72452173 17.12416189 2.5 20.6875 C2.11142828 28.00724158 1.97127647 35.18508774 2.4375 42.5 C2.9836869 51.7509309 3.12597621 60.9851955 3.125 70.25 C3.12508057 71.01841217 3.12516113 71.78682434 3.12524414 72.57852173 C3.11338228 85.59411617 2.93105587 98.60721038 2.73828125 111.62109375 C2.71400854 113.27949014 2.6897369 114.93788654 2.66546631 116.59628296 C2.55429797 124.1349059 2.43913536 131.67340598 2.30958652 139.21173763 C2.25584258 142.38983715 2.20622548 145.567993 2.15743065 148.74617195 C2.13337611 150.24593357 2.10740406 151.74566576 2.07943153 153.24535942 C2.04090684 155.31806829 2.00885944 157.39078407 1.97827148 159.46362305 C1.95828598 160.63394577 1.93830048 161.80426849 1.91770935 163.01005554 C1.98769108 165.55276836 2.24427357 167.58800726 3 170 C2.01 169.34 1.02 168.68 0 168 C-0.36914349 165.13018608 -0.36914349 165.13018608 -0.36076355 161.38156128 C-0.36332682 160.69381563 -0.3658901 160.00606999 -0.36853105 159.29748356 C-0.3734916 156.9817789 -0.35693946 154.66671929 -0.34057617 152.35107422 C-0.33973039 150.69562801 -0.34020409 149.04018066 -0.34190369 147.38473511 C-0.34276696 142.88076709 -0.32508761 138.37703713 -0.30418181 133.8731246 C-0.28547024 129.16991465 -0.28366894 124.46669968 -0.28010559 119.76345825 C-0.27076885 110.85281466 -0.2461331 101.94228104 -0.21605712 93.03168595 C-0.1825637 82.88916363 -0.16603985 72.74663615 -0.15097082 62.60407233 C-0.11958492 41.73598676 -0.06679286 20.8680003 0 0 Z " fill="#7464FE" transform="translate(762,376)"/>
<path d="M0 0 C1.46950859 -0.00422974 1.46950859 -0.00422974 2.96870422 -0.00854492 C4.03331375 -0.00652069 5.09792328 -0.00449646 6.1947937 -0.00241089 C7.32614243 -0.00416321 8.45749115 -0.00591553 9.62312317 -0.00772095 C13.38254313 -0.01213574 17.14191618 -0.00919531 20.90133667 -0.00582886 C23.54886939 -0.00650377 26.19640073 -0.00747467 28.84393311 -0.00872803 C34.42427061 -0.01055068 40.00459492 -0.008151 45.58493042 -0.00338745 C51.2226346 0.0013715 56.86031229 0.00150819 62.49801636 -0.00338745 C95.34930448 -0.03126551 128.17951584 0.12161376 161.01852417 1.12698364 C161.01852417 1.45698364 161.01852417 1.78698364 161.01852417 2.12698364 C128.15267993 3.44556418 128.15267993 3.44556418 113.01852417 2.12698364 C108.61229296 1.95228725 104.5136672 2.05510804 100.14352417 2.68948364 C97.1357298 3.10996801 94.53681347 3.03100121 91.52487183 2.66262817 C82.63655309 1.79386723 73.71317852 1.98329264 64.79196167 1.99417114 C62.83384184 1.99349625 60.87572209 1.99252467 58.91760254 1.99127197 C54.83111771 1.98980444 50.74465486 1.99191951 46.65817261 1.99661255 C41.43884728 2.00231684 36.21957332 1.99902037 31.00024986 1.99304008 C26.96292742 1.98941537 22.92561703 1.9905817 18.88829422 1.99316788 C16.96430073 1.99383147 15.04030612 1.99302873 13.11631393 1.99068832 C10.42271806 1.98812946 7.72920385 1.9920473 5.03561401 1.99758911 C4.25303726 1.99556488 3.47046051 1.99354065 2.66416931 1.99145508 C-2.61772509 2.01143806 -7.73944773 2.47191809 -12.98147583 3.12698364 C-8.73964682 0.29909763 -5.01362717 0.00223281 0 0 Z " fill="#47A0FA" transform="translate(263.9814758300781,190.87301635742188)"/>
<path d="M0 0 C2.22602001 0.03438972 4.45206088 0.06698031 6.67811203 0.09928513 C10.23122082 0.15163045 13.78418852 0.2098006 17.33712387 0.27280998 C19.30162615 0.30703669 21.266191 0.33761029 23.23075485 0.36809921 C24.41665207 0.39122681 25.60254929 0.4143544 26.82438278 0.43818283 C28.37693016 0.46602356 28.37693016 0.46602356 29.96084213 0.49442673 C32.66066581 0.65197194 35.15449773 1.05762208 37.78751755 1.65937424 C37.78751755 1.98937424 37.78751755 2.31937424 37.78751755 2.65937424 C2.47751755 2.65937424 -32.83248245 2.65937424 -69.21248245 2.65937424 C-68.88248245 1.99937424 -68.55248245 1.33937424 -68.21248245 0.65937424 C-45.46819067 -0.41787124 -22.75937051 -0.3548268 0 0 Z " fill="#4A85FD" transform="translate(567.2124824523926,222.34062576293945)"/>
<path d="M0 0 C1.89905318 -0.0032223 3.79810612 -0.00658706 5.69715881 -0.01008606 C9.635921 -0.01601419 13.57466142 -0.01793189 17.51342773 -0.01733398 C22.56740088 -0.0172312 27.62123716 -0.03102906 32.67517757 -0.04810619 C36.57752636 -0.05918377 40.47984115 -0.06125472 44.38220406 -0.06072426 C46.24779303 -0.06190517 48.11338286 -0.06633315 49.97895622 -0.07405663 C52.56802253 -0.08379642 55.15677888 -0.08100562 57.74584961 -0.07495117 C58.51611481 -0.08057068 59.28638 -0.08619019 60.07998657 -0.09197998 C65.36932064 -0.06036686 65.36932064 -0.06036686 67.59765625 2.16796875 C62.46833229 2.950408 57.87611017 3.19881837 52.70703125 2.703125 C45.30805697 2.0858033 37.95632451 2.02012267 30.53515625 2.04296875 C29.24416016 2.03910156 27.95316406 2.03523437 26.62304688 2.03125 C25.38619141 2.03253906 24.14933594 2.03382813 22.875 2.03515625 C21.76374756 2.03628418 20.65249512 2.03741211 19.50756836 2.03857422 C16.99630175 2.15024225 15.00649217 2.54639462 12.59765625 3.16796875 C10.57397461 3.17382812 10.57397461 3.17382812 8.4375 3.01171875 C7.25619507 2.93147461 7.25619507 2.93147461 6.05102539 2.84960938 C5.22078857 2.78966797 4.39055176 2.72972656 3.53515625 2.66796875 C-4.1588163 2.17236577 -4.1588163 2.17236577 -11.83984375 2.66796875 C-20.28581386 3.73043951 -28.93909882 2.70676495 -37.40234375 2.16796875 C-37.40234375 1.83796875 -37.40234375 1.50796875 -37.40234375 1.16796875 C-24.92421683 0.28310364 -12.50712786 0.00505985 0 0 Z " fill="#5388FB" transform="translate(561.40234375,190.83203125)"/>
<path d="M0 0 C0.66 0 1.32 0 2 0 C1.68281006 0.83733673 1.36562012 1.67467346 1.03881836 2.53738403 C-2.03309423 12.77676177 -1.14205634 24.95146319 -1.07516479 35.54602432 C-1.06205855 37.64087171 -1.0558032 39.73565378 -1.05102539 41.83053589 C-1.03978392 46.26205417 -1.02048545 50.69351611 -1 55.125 C-0.97626567 60.30397012 -0.95597796 65.48291059 -0.94406128 70.66192245 C-0.93763474 72.71477193 -0.925143 74.76752482 -0.91235352 76.82034302 C-0.90905029 78.06959564 -0.90574707 79.31884827 -0.90234375 80.60595703 C-0.89710693 81.6990921 -0.89187012 82.79222717 -0.88647461 83.91848755 C-1.00092191 87.02502408 -1.42048286 89.94883368 -2 93 C-2.33 93 -2.66 93 -3 93 C-3.84785348 79.1369196 -4.15817731 65.32319422 -4.13037109 51.43505859 C-4.1249818 48.23921012 -4.13037101 45.04350067 -4.13671875 41.84765625 C-4.15162392 8.30324784 -4.15162392 8.30324784 0 0 Z " fill="#6270FE" transform="translate(642,629)"/>
<path d="M0 0 C0.66 0.33 1.32 0.66 2 1 C2.04943465 5.78717542 2.08573582 10.57420227 2.10986328 15.36157227 C2.11992142 16.99017932 2.13356958 18.61876832 2.15087891 20.24731445 C2.17513574 22.58809872 2.18648483 24.92864424 2.1953125 27.26953125 C2.20563507 27.99775589 2.21595764 28.72598053 2.22659302 29.47627258 C2.22742249 33.21275069 2.12883296 34.80675056 0 38 C-0.84827649 33.58761445 -1.12863586 29.41236308 -1.1328125 24.921875 C-1.13376923 24.26922668 -1.13472595 23.61657837 -1.13571167 22.94415283 C-1.13638775 21.57604881 -1.13457366 20.20794148 -1.13037109 18.83984375 C-1.12497974 16.74211517 -1.13035311 14.64459731 -1.13671875 12.546875 C-1.13605855 11.21354119 -1.13477858 9.88020752 -1.1328125 8.546875 C-1.13168457 7.33870117 -1.13055664 6.13052734 -1.12939453 4.88574219 C-1 2 -1 2 0 0 Z " fill="#5D81FD" transform="translate(310,429)"/>
<path d="M0 0 C0.99 0.33 1.98 0.66 3 1 C2.54431641 1.31275879 2.08863281 1.62551758 1.61914062 1.94775391 C-4.71643476 6.47879352 -10.05520451 11.8273232 -15.5 17.375 C-16.4178125 18.30183594 -17.335625 19.22867188 -18.28125 20.18359375 C-20.52548985 22.4512111 -22.76489422 24.72338511 -25 27 C-25 22.69950206 -22.44195623 20.83078128 -19.625 17.875 C-19.08496338 17.29967529 -18.54492676 16.72435059 -17.98852539 16.1315918 C-12.44776784 10.29660596 -6.71376399 4.47584266 0 0 Z " fill="#6078FE" transform="translate(613,581)"/>
<path d="M0 0 C13.2 0 26.4 0 40 0 C40 0.33 40 0.66 40 1 C38.73542969 1.06058594 37.47085938 1.12117187 36.16796875 1.18359375 C34.50780129 1.26800904 32.84764563 1.35265655 31.1875 1.4375 C30.35412109 1.47681641 29.52074219 1.51613281 28.66210938 1.55664062 C27.85966797 1.59853516 27.05722656 1.64042969 26.23046875 1.68359375 C25.49207764 1.72025146 24.75368652 1.75690918 23.99291992 1.79467773 C21.792505 1.94842141 21.792505 1.94842141 19 3 C18.34 2.67 17.68 2.34 17 2 C14.12089412 1.76725791 11.25853505 1.58027243 8.375 1.4375 C7.57320313 1.39431641 6.77140625 1.35113281 5.9453125 1.30664062 C3.9637489 1.20048543 1.98189729 1.09973145 0 1 C0 0.67 0 0.34 0 0 Z " fill="#5495F8" transform="translate(501,191)"/>
<path d="M0 0 C0.66 0.33 1.32 0.66 2 1 C-4.77131214 5.27429898 -11.64359438 8.83926299 -19 12 C-19 11.01 -19 10.02 -19 9 C-15.88112823 7.46635461 -12.75402378 5.95031107 -9.625 4.4375 C-8.73554687 3.99986328 -7.84609375 3.56222656 -6.9296875 3.11132812 C-6.07890625 2.70205078 -5.228125 2.29277344 -4.3515625 1.87109375 C-3.56604004 1.48880615 -2.78051758 1.10651855 -1.97119141 0.71264648 C-1.32069824 0.47747314 -0.67020508 0.2422998 0 0 Z " fill="#7657F9" transform="translate(762,810)"/>
<path d="M0 0 C1.44246094 -0.02126953 1.44246094 -0.02126953 2.9140625 -0.04296875 C5.375 0.1875 5.375 0.1875 7.375 2.1875 C-0.545 2.6825 -0.545 2.6825 -8.625 3.1875 C-8.955 2.5275 -9.285 1.8675 -9.625 1.1875 C-6.37294841 0.22421457 -3.38614248 0.02281767 0 0 Z " fill="#6865FE" transform="translate(722.625,326.8125)"/>
<path d="M0 0 C-0.33 0.99 -0.66 1.98 -1 3 C-3.43359375 4.203125 -3.43359375 4.203125 -6.4375 5.25 C-7.92056641 5.78367187 -7.92056641 5.78367187 -9.43359375 6.328125 C-12 7 -12 7 -14 6 C-12.04414675 4.99515796 -10.08523763 3.99626195 -8.125 3 C-6.48917969 2.1646875 -6.48917969 2.1646875 -4.8203125 1.3125 C-2 0 -2 0 0 0 Z " fill="#6372FD" transform="translate(644,565)"/>
<path d="M0 0 C0.33 0 0.66 0 1 0 C1.22224251 2.58281836 1.42823488 5.16522187 1.625 7.75 C1.68945312 8.47960937 1.75390625 9.20921875 1.8203125 9.9609375 C2.10381649 13.85911736 2.27081383 16.70645322 0 20 C-0.74464946 13.12631267 -1.18225237 6.83079148 0 0 Z " fill="#5F75FC" transform="translate(558,687)"/>
<path d="M0 0 C1.71202723 5.79643504 -1.35083683 9.82209017 -4 15 C-5 13 -5 13 -4.00390625 9.9609375 C-3.52824219 8.77757812 -3.05257812 7.59421875 -2.5625 6.375 C-2.08941406 5.18648437 -1.61632812 3.99796875 -1.12890625 2.7734375 C-0.75636719 1.85820313 -0.38382813 0.94296875 0 0 Z " fill="#607DFC" transform="translate(568,639)"/>
<path d="M0 0 C0.33 0.99 0.66 1.98 1 3 C0.07421875 4.82421875 0.07421875 4.82421875 -1.3125 6.6875 C-1.76238281 7.31011719 -2.21226562 7.93273437 -2.67578125 8.57421875 C-3.11277344 9.04472656 -3.54976562 9.51523437 -4 10 C-4.66 10 -5.32 10 -6 10 C-4.6302836 6.00499382 -2.74277578 3.19990508 0 0 Z " fill="#5D7AFE" transform="translate(586,608)"/>
<path d="M0 0 C0.99 0 1.98 0 3 0 C1.4169423 4.2742558 -1.50568404 6.26531794 -5 9 C-4.1875 6.5625 -4.1875 6.5625 -3 4 C-2.01 3.67 -1.02 3.34 0 3 C0 2.01 0 1.02 0 0 Z " fill="#7B57F8" transform="translate(792,784)"/>
<path d="M0 0 C0.66 0 1.32 0 2 0 C2 0.66 2 1.32 2 2 C1.34 2 0.68 2 0 2 C-0.2475 2.61875 -0.495 3.2375 -0.75 3.875 C-2.20628639 6.35068687 -3.37812506 6.95125002 -6 8 C-6 7.34 -6 6.68 -6 6 C-5.34 6 -4.68 6 -4 6 C-3.71125 5.38125 -3.4225 4.7625 -3.125 4.125 C-2 2 -2 2 0 0 Z " fill="#705EFC" transform="translate(575,578)"/>
<path d="M0 0 C1.32 0.33 2.64 0.66 4 1 C1.69 2.65 -0.62 4.3 -3 6 C-3.66 5.67 -4.32 5.34 -5 5 C-2.75 2.4375 -2.75 2.4375 0 0 Z " fill="#7857FB" transform="translate(769,804)"/>
<path d="M0 0 C0.66 0.33 1.32 0.66 2 1 C1.1875 3.4375 1.1875 3.4375 0 6 C-0.99 6.33 -1.98 6.66 -3 7 C-1.125 2.25 -1.125 2.25 0 0 Z M-5 8 C-4.67 8.66 -4.34 9.32 -4 10 C-4.66 9.67 -5.32 9.34 -6 9 C-5.67 8.67 -5.34 8.34 -5 8 Z " fill="#745FFD" transform="translate(623,476)"/>
<path d="M0 0 C4.2742558 1.5830577 6.26531794 4.50568404 9 8 C5.56247993 6.4722133 2.81046312 4.49818944 0 2 C0 1.34 0 0.68 0 0 Z " fill="#7061FC" transform="translate(642,400)"/>
<path d="M0 0 C4 1 4 1 4 1 Z " fill="#796BFC" transform="translate(573,479)"/>
<path d="" fill="#7A66F5" transform="translate(0,0)"/>
<path d="" fill="#7F6CFE" transform="translate(0,0)"/>
<path d="" fill="#806CFE" transform="translate(0,0)"/>
<path d="" fill="#7868F7" transform="translate(0,0)"/>
<path d="M0 0 C2 1 2 1 2 1 Z " fill="#7D6AFE" transform="translate(587,479)"/>
<path d="M0 0 C2 1 2 1 2 1 Z " fill="#7B6BFD" transform="translate(584,479)"/>
<path d="" fill="#786DFD" transform="translate(0,0)"/>
<path d="" fill="#7D62EE" transform="translate(0,0)"/>
<path d="" fill="#7D64EC" transform="translate(0,0)"/>
<path d="" fill="#796EFA" transform="translate(0,0)"/>
<path d="" fill="#796DFA" transform="translate(0,0)"/>
<path d="" fill="#7A72FE" transform="translate(0,0)"/>
<path d="" fill="#7B63F0" transform="translate(0,0)"/>
<path d="" fill="#7D62EF" transform="translate(0,0)"/>
<path d="" fill="#7A72FF" transform="translate(0,0)"/>
<path d="" fill="#815EF1" transform="translate(0,0)"/>
<path d="" fill="#717BFB" transform="translate(0,0)"/>
<path d="" fill="#7479FD" transform="translate(0,0)"/>
<path d="" fill="#727FFC" transform="translate(0,0)"/>
<path d="" fill="#8463F3" transform="translate(0,0)"/>
<path d="" fill="#7181FC" transform="translate(0,0)"/>
<path d="" fill="#7B67F9" transform="translate(0,0)"/>
<path d="" fill="#7569F5" transform="translate(0,0)"/>
<path d="" fill="#6C85FF" transform="translate(0,0)"/>
<path d="" fill="#6C81FF" transform="translate(0,0)"/>
<path d="" fill="#6F6EF8" transform="translate(0,0)"/>
<path d="" fill="#6E7BFE" transform="translate(0,0)"/>
<path d="" fill="#7F6DFF" transform="translate(0,0)"/>
<path d="" fill="#796FFF" transform="translate(0,0)"/>
<path d="" fill="#6C73FA" transform="translate(0,0)"/>
<path d="" fill="#6578F6" transform="translate(0,0)"/>
<path d="" fill="#7D6BFF" transform="translate(0,0)"/>
<path d="" fill="#7C6BFD" transform="translate(0,0)"/>
<path d="" fill="#7374FD" transform="translate(0,0)"/>
<path d="" fill="#806AFD" transform="translate(0,0)"/>
<path d="" fill="#7F69FE" transform="translate(0,0)"/>
<path d="" fill="#667DF9" transform="translate(0,0)"/>
<path d="" fill="#7C69FF" transform="translate(0,0)"/>
<path d="" fill="#7C69FF" transform="translate(0,0)"/>
<path d="" fill="#806AFF" transform="translate(0,0)"/>
<path d="" fill="#7D69FF" transform="translate(0,0)"/>
<path d="" fill="#7E69FF" transform="translate(0,0)"/>
<path d="" fill="#6A7FFE" transform="translate(0,0)"/>
<path d="" fill="#7570FE" transform="translate(0,0)"/>
<path d="" fill="#7078FC" transform="translate(0,0)"/>
<path d="" fill="#6F79FF" transform="translate(0,0)"/>
<path d="" fill="#6A7AFE" transform="translate(0,0)"/>
<path d="" fill="#5B8FFC" transform="translate(0,0)"/>
<path d="" fill="#746CFE" transform="translate(0,0)"/>
<path d="" fill="#726CFF" transform="translate(0,0)"/>
<path d="" fill="#7376FF" transform="translate(0,0)"/>
<path d="" fill="#6484F0" transform="translate(0,0)"/>
<path d="" fill="#58ABF2" transform="translate(0,0)"/>
</svg>
